<svg width="246" height="500" xmlns="http://www.w3.org/2000/svg">
  <g fill-rule="nonzero" fill="none">
    <path
      d="M.655 6.628c23.35-10.449 244.121-7.066 245.25 0 2.475 15.489-44.578 306.055-45.279 369.785-.524 47.684 17.288 59.323 16.57 86.787-1.047 40-60.74 37.01-94.57 36.584-38.448-.487-92.536.216-94.313-36.672-1.405-29.156 17.009-43.234 15.888-88.685C42.701 313.651-6.182 9.687.655 6.627"
      fill-opacity=".2" fill="#F8F7F0" />
    <path
      d="M29.237 46.343c2.815-3.375 186.835-5.423 187.698 0 1.895 11.891-38.494 286.845-39.03 335.774-.4 36.609 17.608 51.545 17.059 72.629-.802 30.71-46.487 28.416-72.38 28.088-29.424-.374-70.82.232-72.18-28.088-1.076-22.384 17.485-39.972 16.627-74.867-1.146-46.66-41.47-329.128-37.794-333.536"
      fill="#F5BB00" />
    <path
      d="M29.01 30.364c2.813-3.397 186.766-5.457 187.63 0 1.893 11.962-4.245 62.51-4.988 64.776-4.726 14.413-63.446 11.797-89.33 11.467-29.413-.376-85.678 1.132-88.713-9.319-.792-2.723-8.274-62.49-4.6-66.924"
      fill="#F8F7F0" />
    <path
      d="M77.32 279.13c.701 7.657 18.92-9.975 17.613-20.713C87.294 195.621 78.747 121.591 70.12 45c-8.149.162-15.915.348-23.12.556 11.257 83.305 26.131 187.73 30.32 233.573"
      fill-opacity=".2" fill="#F8F7F0" />
  </g>
</svg>
